<svg width="18" height="18" viewBox="0 0 18 18" fill="none" xmlns="http://www.w3.org/2000/svg">
<path d="M14.4042 12.8667L11.5383 11.4339C11.268 11.2986 11.1 11.0268 11.1 10.7244V9.7101C11.1687 9.6261 11.241 9.5304 11.3157 9.4248C11.6874 8.8998 11.9853 8.3154 12.2019 7.6851C12.6252 7.491 12.9 7.0725 12.9 6.6V5.4C12.9 5.1111 12.792 4.8312 12.6 4.6125V3.0168C12.6168 2.8518 12.6828 1.8696 11.9724 1.0593C11.3562 0.3564 10.3563 0 8.99998 0C7.64368 0 6.64377 0.3564 6.02758 1.059C5.31718 1.8693 5.38318 2.8518 5.39998 3.0168V4.6125C5.20798 4.8312 5.09998 5.1111 5.09998 5.4V6.6C5.09998 6.9651 5.26588 7.3056 5.54908 7.5327C5.82388 8.6208 6.39898 9.4407 6.59998 9.7038V10.6965C6.59998 10.9869 6.44158 11.2533 6.18687 11.3925L3.51058 12.8523C2.64028 13.3272 2.09998 14.2374 2.09998 15.2286V16.2C2.09998 17.6238 6.61348 18 8.99998 18C11.3865 18 15.9 17.6238 15.9 16.2V15.2871C15.9 14.2557 15.3267 13.3281 14.4042 12.8667Z" fill="#0B40D3"/>
</svg>
