<svg width="16" height="16" viewBox="0 0 16 16" fill="none" xmlns="http://www.w3.org/2000/svg">
<path d="M15.6813 2.80427H14.6283V2.69626C14.6283 2.60851 14.5922 2.52466 14.5284 2.46448C14.4645 2.40421 14.3783 2.37313 14.2912 2.37807L8 2.74276L1.70884 2.37807C1.6212 2.37313 1.53543 2.40421 1.47165 2.46448C1.40784 2.52469 1.37167 2.60854 1.37167 2.69626V2.80427H0.318725C0.142725 2.80427 0 2.947 0 3.123V13.3037C0 13.4797 0.142725 13.6224 0.318725 13.6224H15.6813C15.8573 13.6224 16 13.4797 16 13.3037V3.123C16 2.947 15.8573 2.80427 15.6813 2.80427ZM8.31873 3.36284L13.9909 3.03404V11.7837L8.31873 12.1125V3.36284ZM2.00912 3.03401L7.68128 3.36284V12.1125L2.00912 11.7837V3.03401ZM15.3626 12.985H0.63745V3.44172H1.37167V12.0845C1.37167 12.2533 1.50336 12.3929 1.67194 12.4026L7.98155 12.7684C7.9877 12.7688 7.99379 12.769 7.99987 12.769C7.9999 12.769 7.99994 12.769 7.99997 12.769H8H8.00003C8.00006 12.769 8.0001 12.769 8.00013 12.769C8.00625 12.769 8.01237 12.7688 8.01845 12.7684L14.3281 12.4026C14.4966 12.3929 14.6283 12.2533 14.6283 12.0845V3.44172H15.3626V12.985Z" fill="black"/>
<path d="M6.82966 4.14597L4.60455 4.01699C4.42874 4.00656 4.27811 4.14103 4.26788 4.31671C4.25771 4.49246 4.39192 4.64318 4.5676 4.65338L6.79272 4.78237C6.799 4.78275 6.80528 4.78291 6.81146 4.78291C6.97905 4.78291 7.11954 4.65211 7.12939 4.48264C7.13959 4.3069 7.00537 4.15614 6.82966 4.14597Z" fill="black"/>
<path d="M2.95213 4.5597L3.50082 4.59151C3.5071 4.59189 3.51338 4.59205 3.51956 4.59205C3.68714 4.59205 3.82764 4.46125 3.83749 4.29178C3.84766 4.11604 3.71347 3.96531 3.53776 3.95514L2.98907 3.92334C2.81246 3.91314 2.66263 4.04738 2.6524 4.22306C2.6422 4.39878 2.77638 4.54953 2.95213 4.5597Z" fill="black"/>
<path d="M6.8297 5.60904L2.98907 5.38641C2.81246 5.37624 2.66263 5.51045 2.6524 5.68614C2.64223 5.86188 2.77641 6.01261 2.95213 6.0228L6.79276 6.24543C6.79904 6.24582 6.80532 6.24598 6.81151 6.24598C6.97909 6.24598 7.11959 6.11517 7.12943 5.9457C7.13963 5.76996 7.00545 5.6192 6.8297 5.60904Z" fill="black"/>
<path d="M6.8297 7.10262L2.98907 6.87999C2.81246 6.86989 2.66263 7.00404 2.6524 7.17972C2.64223 7.35547 2.77641 7.50619 2.95213 7.51639L6.79276 7.73902C6.79904 7.7394 6.80532 7.73956 6.81151 7.73956C6.97909 7.73956 7.11959 7.60876 7.12943 7.43929C7.13963 7.26354 7.00545 7.11282 6.8297 7.10262Z" fill="black"/>
<path d="M6.8297 8.56579L2.98907 8.34316C2.81246 8.33305 2.66263 8.4672 2.6524 8.64289C2.64223 8.81863 2.77641 8.96935 2.95213 8.97955L6.79276 9.20218C6.79904 9.20257 6.80532 9.20272 6.81151 9.20272C6.97909 9.20272 7.11959 9.07192 7.12943 8.90245C7.13963 8.72671 7.00545 8.57595 6.8297 8.56579Z" fill="black"/>
<path d="M13.0719 8.34311L10.6943 8.48093C10.5186 8.4911 10.3844 8.64186 10.3946 8.8176C10.4044 8.98703 10.5449 9.11787 10.7125 9.11787C10.7187 9.11787 10.725 9.11771 10.7313 9.11733L13.1088 8.97951C13.2845 8.96935 13.4187 8.81859 13.4085 8.64284C13.3983 8.46716 13.2489 8.33282 13.0719 8.34311Z" fill="black"/>
<path d="M9.74937 8.53571L9.23119 8.56573C9.05547 8.5759 8.92125 8.72666 8.93145 8.9024C8.9413 9.07184 9.08177 9.20267 9.24938 9.20267C9.25557 9.20267 9.26185 9.20252 9.26813 9.20213L9.78631 9.17211C9.96203 9.16194 10.0962 9.01118 10.086 8.83544C10.0758 8.65976 9.92557 8.52542 9.74937 8.53571Z" fill="black"/>
<path d="M13.0718 6.87999L9.23118 7.10262C9.05544 7.11279 8.92125 7.26354 8.93145 7.43929C8.9413 7.60872 9.08176 7.73956 9.24938 7.73956C9.25557 7.73956 9.26185 7.7394 9.26812 7.73902L13.1088 7.51639C13.2845 7.50622 13.4187 7.35547 13.4085 7.17972C13.3983 7.00404 13.2489 6.86989 13.0718 6.87999Z" fill="black"/>
<path d="M13.0718 5.38643L9.23118 5.60906C9.05544 5.61923 8.92125 5.76999 8.93145 5.94573C8.9413 6.11517 9.08176 6.24601 9.24938 6.24601C9.25557 6.24601 9.26185 6.24585 9.26812 6.24546L13.1088 6.02283C13.2845 6.01267 13.4187 5.86191 13.4085 5.68616C13.3983 5.51045 13.2489 5.37598 13.0718 5.38643Z" fill="black"/>
<path d="M13.0718 3.92331L9.23118 4.14595C9.05544 4.15611 8.92125 4.30687 8.93145 4.48262C8.9413 4.65205 9.08176 4.78289 9.24938 4.78289C9.25557 4.78289 9.26185 4.78273 9.26812 4.78235L13.1088 4.55972C13.2845 4.54955 13.4187 4.39879 13.4085 4.22305C13.3983 4.04736 13.2489 3.91302 13.0718 3.92331Z" fill="black"/>
</svg>
