<svg width="48" height="48" viewBox="0 0 48 48" fill="none" xmlns="http://www.w3.org/2000/svg">
<path d="M28.9999 20H42.9999C43.5519 20 43.9999 19.5519 43.9999 18.9999C43.9999 18.4479 43.552 18 43 18H28.9999C28.4479 18 27.9999 18.448 27.9999 19C27.9999 19.552 28.4479 20 28.9999 20Z" fill="#5960FC"/>
<path d="M43 1.99997H4.99997C2.24203 1.99997 0 4.24397 0 7.00003V41.0001C0 43.756 2.24203 46 4.99997 46H42.9999C45.758 46 47.9999 43.756 47.9999 41.0001V7.00003C48 4.24397 45.758 1.99997 43 1.99997ZM13 6C13.552 6 14.0001 6.44803 14.0001 7.00003C14.0001 7.55203 13.552 8.00006 13 8.00006C12.448 8.00006 12 7.55203 12 7.00003C12 6.44803 12.448 6 13 6ZM9 6C9.552 6 10 6.44803 10 7.00003C10 7.55203 9.552 7.99997 9 7.99997C8.448 7.99997 7.99997 7.55194 7.99997 6.99994C7.99997 6.44794 8.448 6 9 6ZM4.99997 6C5.55197 6 6 6.44803 6 7.00003C6 7.55203 5.55197 8.00006 4.99997 8.00006C4.44797 8.00006 3.99994 7.55203 3.99994 7.00003C3.99994 6.44803 4.44797 6 4.99997 6ZM46 41C46 42.654 44.6541 44 43 44H4.99997C3.34594 44 1.99997 42.654 1.99997 41V12H45.9999V41H46Z" fill="#5960FC"/>
<path d="M4.99997 38H25C25.552 38 26 37.55 26 36.998C26 34.4919 24.3 32.316 21.87 31.7079L18.868 30.9579L18.742 30.4559C19.522 29.5959 20.074 28.4979 20.304 27.3579C20.838 27.0819 21.224 26.558 21.304 25.928L21.5201 24.188C21.5861 23.66 21.424 23.1279 21.0741 22.728C20.9661 22.604 20.8441 22.498 20.71 22.406L20.76 21.344L20.942 21.162C21.458 20.614 22.154 19.444 21.052 17.756C20.5319 16.956 19.4519 15.9999 17.288 15.9999C16.652 15.9999 15.2139 15.9999 13.818 16.8759C9.70201 17.0199 9.21797 19.238 9.21797 20.9139C9.21797 21.2439 9.27601 21.8619 9.33394 22.3779C9.18591 22.472 9.04791 22.5879 8.93194 22.7219C8.57597 23.1259 8.41191 23.6599 8.47997 24.1899L8.69597 25.9299C8.77801 26.582 9.19201 27.122 9.80194 27.3879C10.0259 28.478 10.55 29.534 11.2799 30.3719L11.1339 30.9599L8.13197 31.7099C5.7 32.3159 3.99994 34.4919 3.99994 36.9999C4.00003 37.552 4.44797 38 4.99997 38Z" fill="#5960FC"/>
<path d="M28.9999 38H36.9999C37.5519 38 37.9999 37.5519 37.9999 36.9999C37.9999 36.4479 37.552 36 37 36H29C28.448 36 28 36.448 28 37C28 37.552 28.4479 38 28.9999 38Z" fill="#5960FC"/>
<path d="M28.9999 26H42.9999C43.5519 26 43.9999 25.5519 43.9999 24.9999C43.9999 24.4479 43.552 24 43 24H28.9999C28.4479 24 27.9999 24.448 27.9999 25C27.9999 25.552 28.4479 26 28.9999 26Z" fill="#5960FC"/>
<path d="M28.9999 32H42.9999C43.5519 32 43.9999 31.5519 43.9999 30.9999C43.9999 30.4479 43.552 30 43 30H28.9999C28.4479 30 27.9999 30.448 27.9999 31C27.9999 31.552 28.4479 32 28.9999 32Z" fill="#5960FC"/>
</svg>
