<svg width="48" height="48" viewBox="0 0 48 48" fill="none" xmlns="http://www.w3.org/2000/svg">
<path d="M43.7262 10.2914H33.9888V6.78773C33.9888 4.37497 32.026 2.41213 29.6132 2.41213H18.3868C15.974 2.41213 14.0112 4.37497 14.0112 6.78773V10.2914H4.27375C1.91719 10.2914 0 12.2087 0 14.5654V41.314C0 43.6706 1.91719 45.5879 4.27375 45.5879H43.7261C46.0827 45.5879 48 43.6707 48 41.314V14.5654C48.0001 12.2087 46.0828 10.2914 43.7262 10.2914ZM16.9691 6.78784C16.9691 6.00615 17.6051 5.37018 18.3868 5.37018H29.6132C30.3949 5.37018 31.0309 6.00615 31.0309 6.78784V10.2915H16.9691V6.78784ZM2.95795 14.5654C2.95795 13.8398 3.54826 13.2493 4.27375 13.2493C6.02621 13.2493 41.6266 13.2493 43.7261 13.2493C44.4517 13.2493 45.042 13.8397 45.042 14.5652V25.1029H38.3969V21.561C38.3969 20.7442 37.7347 20.082 36.9179 20.082H30.1493C29.3325 20.082 28.6703 20.7442 28.6703 21.561V25.103H19.3293V21.561C19.3293 20.7442 18.6672 20.082 17.8504 20.082H11.0818C10.265 20.082 9.60278 20.7442 9.60278 21.561V25.103H2.95795V14.5654ZM35.4392 23.0398V29.8653H31.6285V23.0398H35.4392ZM16.3716 23.0398V29.8653H12.5608V23.0398H16.3716ZM45.0422 41.3139C45.0422 42.0395 44.4518 42.6298 43.7262 42.6298H4.27375C3.54816 42.6298 2.95784 42.0395 2.95784 41.3139V28.0608H9.60288V31.3443C9.60288 32.161 10.2651 32.8232 11.0819 32.8232H17.8505C18.6673 32.8232 19.3294 32.161 19.3294 31.3443V28.0608H28.6704V31.3443C28.6704 32.161 29.3326 32.8232 30.1494 32.8232H36.918C37.7348 32.8232 38.397 32.161 38.397 31.3443V28.0608H45.0422V41.3139Z" fill="#5960FC"/>
</svg>
