<svg width="16" height="16" viewBox="0 0 16 16" fill="none" xmlns="http://www.w3.org/2000/svg">
<path fill-rule="evenodd" clip-rule="evenodd" d="M6.1129 4.7097C5.72061 4.40468 5.15338 4.43241 4.79289 4.79289C4.40237 5.18342 4.40237 5.81658 4.79289 6.20711L6.58579 8L4.79289 9.79289L4.7097 9.8871C4.40468 10.2794 4.43241 10.8466 4.79289 11.2071C5.18342 11.5976 5.81658 11.5976 6.20711 11.2071L8 9.41421L9.79289 11.2071L9.8871 11.2903C10.2794 11.5953 10.8466 11.5676 11.2071 11.2071C11.5976 10.8166 11.5976 10.1834 11.2071 9.79289L9.41421 8L11.2071 6.20711L11.2903 6.1129C11.5953 5.72061 11.5676 5.15338 11.2071 4.79289C10.8166 4.40237 10.1834 4.40237 9.79289 4.79289L8 6.58579L6.20711 4.79289L6.1129 4.7097Z" fill="#98A8B3"/>
</svg>
