<svg width="40" height="40" viewBox="0 0 40 40" fill="none" xmlns="http://www.w3.org/2000/svg">
<path d="M36.8203 0.913818H3.1837C1.42285 0.913818 0 2.33533 0 4.09351V35.9078C0 37.6606 1.42285 39.0862 3.1837 39.0862H36.8203C38.5731 39.0862 40 37.662 40 35.9078V4.09351C39.9987 2.33533 38.5718 0.913818 36.8203 0.913818ZM26.8871 12.2472C26.0601 11.7635 25.4041 11.3814 24.5798 11.3814C23.7729 11.3814 23.0835 11.5832 22.7308 11.9225C22.3781 12.2592 22.2031 12.9111 22.2031 13.8744V15.2999H26.517L25.5832 19.2652H22.2031V32.4409H16.7842V19.2652H14.2552V15.2999H16.7869V13.7862C16.7869 12.1924 16.978 11.2385 17.3547 10.4516C17.7301 9.66733 18.4583 8.79358 19.4709 8.29926C20.4823 7.80627 21.9786 7.55777 23.5271 7.55777C25.1142 7.55777 26.354 8.08683 27.8744 8.51302L26.8871 12.2472Z" fill="#A5AEB3"/>
</svg>
