<svg width="16" height="16" viewBox="0 0 16 16" fill="none" xmlns="http://www.w3.org/2000/svg">
<path fill-rule="evenodd" clip-rule="evenodd" d="M4.5 8C5.88071 8 7 6.88071 7 5.5C7 4.11929 5.88071 3 4.5 3C3.11929 3 2 4.11929 2 5.5C2 6.88071 3.11929 8 4.5 8ZM8.262 10.282C8.735 10.657 9 11.232 9 11.836V13H0V11.836C0 11.232 0.265 10.657 0.738 10.282C1.461 9.708 2.715 9 4.5 9C6.285 9 7.539 9.708 8.262 10.282ZM14 5.5C14 6.88071 12.8807 8 11.5 8C10.1193 8 9 6.88071 9 5.5C9 4.11929 10.1193 3 11.5 3C12.8807 3 14 4.11929 14 5.5ZM11.5 9C13.285 9 14.539 9.708 15.262 10.282C15.735 10.657 16 11.232 16 11.836V13H11V11.836C11 10.836 10.625 9.909 9.981 9.189C10.437 9.075 10.939 9 11.5 9Z" fill="#98A8B3"/>
</svg>
