<svg width="40" height="40" viewBox="0 0 40 40" fill="none" xmlns="http://www.w3.org/2000/svg">
<path d="M19.9995 0C14.5633 0 13.8858 0.02625 11.7583 0.11625C9.62201 0.22125 8.17701 0.5525 6.90201 1.0475C5.58701 1.5625 4.46701 2.24625 3.36076 3.35875C2.24701 4.465 1.55701 5.585 1.04951 6.9C0.554514 8.175 0.223264 9.62 0.118264 11.7562C0.0220142 13.885 0.00201416 14.5613 0.00201416 19.9975C0.00201416 25.4338 0.0282642 26.1112 0.118264 28.2388C0.223264 30.3687 0.554514 31.82 1.04951 33.095C1.56451 34.41 2.24826 35.53 3.36076 36.6362C4.46701 37.75 5.58701 38.44 6.90201 38.9475C8.17701 39.4363 9.62826 39.7738 11.7583 39.8787C13.887 39.975 14.5633 39.995 19.9995 39.995C25.4358 39.995 26.1133 39.9688 28.2408 39.8787C30.3708 39.7738 31.822 39.435 33.097 38.9475C34.412 38.4325 35.532 37.7487 36.6383 36.6362C37.752 35.53 38.442 34.4162 38.9495 33.095C39.4383 31.82 39.7758 30.3687 39.8808 28.2388C39.977 26.11 39.997 25.4338 39.997 19.9975C39.997 14.5613 39.9708 13.8837 39.8808 11.7562C39.7758 9.62625 39.437 8.1675 38.9495 6.9C38.4345 5.585 37.7508 4.465 36.6383 3.35875C35.532 2.245 34.4183 1.555 33.097 1.0475C31.822 0.5525 30.3708 0.22125 28.2408 0.11625C26.112 0.02 25.4358 0 19.9995 0V0ZM19.9995 3.6C25.3383 3.6 25.9758 3.62625 28.0858 3.71625C30.032 3.8075 31.092 4.1325 31.7958 4.4075C32.7345 4.77125 33.3908 5.20125 34.1008 5.90375C34.797 6.6 35.227 7.26375 35.5908 8.2025C35.8658 8.90625 36.1908 9.96625 36.282 11.9125C36.372 14.0225 36.3983 14.6612 36.3983 19.9987C36.3983 25.3363 36.372 25.975 36.2745 28.085C36.1695 30.0312 35.8445 31.0913 35.5708 31.795C35.192 32.7337 34.7695 33.39 34.072 34.1C33.3683 34.7962 32.6983 35.2262 31.767 35.59C31.072 35.865 29.997 36.19 28.0433 36.2812C25.922 36.3713 25.297 36.3975 19.9445 36.3975C14.592 36.3975 13.9683 36.3713 11.8445 36.2738C9.89826 36.1688 8.82451 35.8438 8.12076 35.57C7.17076 35.1912 6.51951 34.7687 5.82201 34.0713C5.11826 33.3675 4.67076 32.6975 4.32576 31.7663C4.04576 31.0713 3.72576 29.9963 3.62201 28.0425C3.55076 25.9463 3.51701 25.2963 3.51701 19.9688C3.51701 14.6438 3.55076 13.9925 3.62201 11.87C3.72576 9.91625 4.04576 8.84375 4.32576 8.14625C4.67076 7.195 5.11951 6.545 5.82201 5.84125C6.51826 5.145 7.17076 4.695 8.12076 4.3425C8.82451 4.06875 9.87201 3.74375 11.8258 3.64625C13.947 3.57 14.572 3.5425 19.917 3.5425L19.9995 3.6ZM19.9995 9.73375C14.3233 9.73375 9.73326 14.33 9.73326 20C9.73326 25.6763 14.3295 30.2662 19.9995 30.2662C25.6758 30.2662 30.2658 25.67 30.2658 20C30.2658 14.3238 25.6695 9.73375 19.9995 9.73375ZM19.9995 26.6663C16.3145 26.6663 13.3333 23.685 13.3333 20C13.3333 16.315 16.3145 13.3337 19.9995 13.3337C23.6845 13.3337 26.6658 16.315 26.6658 20C26.6658 23.685 23.6845 26.6663 19.9995 26.6663ZM33.0795 9.32375C33.0795 10.6525 31.9983 11.725 30.6758 11.725C29.347 11.725 28.2745 10.6512 28.2745 9.32375C28.2745 8.0025 29.3545 6.9275 30.6758 6.9275C31.997 6.9275 33.0795 8.0025 33.0795 9.32375Z" fill="#A5AEB3"/>
</svg>
