<svg width="72" height="19" viewBox="0 0 72 19" fill="none" xmlns="http://www.w3.org/2000/svg">
<path d="M7.34929 6.13346C8.56698 6.13346 9.46132 6.50109 10.0323 7.23635C10.6033 7.96499 10.8888 9.25004 10.8888 11.0915V18.3448C10.8888 18.4375 10.882 18.5004 10.8682 18.5335C10.7856 18.6594 10.4657 18.7223 9.90849 18.7223C9.35813 18.7223 8.794 18.6826 8.21612 18.6031C7.63823 18.5236 7.34929 18.4375 7.34929 18.3448L7.31833 11.0915C7.31833 9.31628 7.18762 8.42867 6.9262 8.42867C6.33455 8.42867 5.5434 8.7135 4.55274 9.28316V18.3448C4.55274 18.4375 4.54242 18.5004 4.52178 18.5335C4.43923 18.6594 4.12277 18.7223 3.5724 18.7223C3.01515 18.7223 2.44415 18.6826 1.85939 18.6031C1.27462 18.5236 0.982239 18.4375 0.982239 18.3448V0.410344C0.982239 0.158633 1.27462 0.0327759 1.85939 0.0327759C2.44415 0.0327759 2.95324 0.0692084 3.38665 0.142072C3.81319 0.208312 4.03677 0.297736 4.05741 0.410344L4.50114 7.3059C5.75323 6.52428 6.70261 6.13346 7.34929 6.13346ZM16.9773 18.7223C15.2161 18.7223 13.9915 18.262 13.3036 17.3412C12.6156 16.4205 12.2716 14.7678 12.2716 12.3832C12.2716 10.6676 12.4299 9.35934 12.7463 8.45848C13.0628 7.56424 13.5375 6.95152 14.1704 6.62032C14.8033 6.29575 15.7389 6.13346 16.9773 6.13346C18.2156 6.13346 19.1546 6.30237 19.7944 6.64019C20.4274 6.97139 20.8917 7.59074 21.1876 8.49822C21.4903 9.40571 21.6416 10.6941 21.6416 12.3633C21.6416 12.456 21.6416 12.5488 21.6416 12.6415C21.6416 12.7409 21.4455 12.8303 21.0534 12.9098C20.6682 12.9893 20.2038 13.029 19.6603 13.029H15.8421C15.8765 14.8904 16.0176 15.9469 16.2652 16.1986C16.4097 16.3245 16.647 16.3874 16.9773 16.3874C19.1443 16.3874 20.6234 16.2847 21.4146 16.0794C21.449 16.0661 21.4731 16.0595 21.4868 16.0595C21.6038 16.0264 21.7001 16.0893 21.7758 16.2483C21.8514 16.4072 21.8893 16.7815 21.8893 17.371C21.8893 17.9539 21.7551 18.2785 21.4868 18.3448C20.8126 18.5965 19.3094 18.7223 16.9773 18.7223ZM15.8421 9.26329V11.1213H18.3394C18.2775 9.27323 18.0883 8.34918 17.7719 8.34918C17.2146 8.34918 16.7537 8.42867 16.3891 8.58764C16.0244 8.74662 15.8421 8.97183 15.8421 9.26329ZM23.7674 18.3448V6.52096C23.7674 6.26263 24.0632 6.13346 24.6549 6.13346C25.2534 6.13346 25.8175 6.1732 26.3472 6.25269C26.8701 6.33218 27.1315 6.4216 27.1315 6.52096V18.3448C27.1315 18.4375 27.1246 18.5004 27.1109 18.5335C27.0283 18.6594 26.7153 18.7223 26.1718 18.7223C25.6283 18.7223 25.0917 18.6826 24.562 18.6031C24.0323 18.5236 23.7674 18.4375 23.7674 18.3448ZM25.305 3.46069C24.1148 3.46069 23.5197 2.89102 23.5197 1.7517C23.5197 0.60575 24.1148 0.0327759 25.305 0.0327759C26.4952 0.0327759 27.0902 0.60575 27.0902 1.7517C27.0902 2.89102 26.4952 3.46069 25.305 3.46069ZM33.8494 18.7223C32.0814 18.7223 30.8534 18.262 30.1654 17.3412C29.4843 16.4205 29.1438 14.7678 29.1438 12.3832C29.1438 10.6676 29.2986 9.35934 29.6082 8.45848C29.9246 7.56424 30.3993 6.95152 31.0322 6.62032C31.672 6.29575 32.6111 6.13346 33.8494 6.13346C35.0878 6.13346 36.0234 6.30237 36.6563 6.64019C37.2961 6.97139 37.7639 7.59074 38.0597 8.49822C38.3555 9.40571 38.5035 10.6941 38.5035 12.3633C38.5035 12.456 38.5035 12.5488 38.5035 12.6415C38.5035 12.7409 38.3108 12.8303 37.9256 12.9098C37.5334 12.9893 37.0656 13.029 36.5221 13.029H32.704C32.7384 14.8904 32.8794 15.9469 33.1271 16.1986C33.2784 16.3245 33.5192 16.3874 33.8494 16.3874C36.0096 16.3874 37.4853 16.2847 38.2764 16.0794C38.3108 16.0661 38.3384 16.0595 38.359 16.0595C38.4691 16.0264 38.5619 16.0893 38.6376 16.2483C38.7133 16.4072 38.7511 16.7815 38.7511 17.371C38.7511 17.9539 38.6204 18.2785 38.359 18.3448C37.6779 18.5965 36.1747 18.7223 33.8494 18.7223ZM32.704 9.26329V11.1213H35.2116C35.1428 9.27323 34.9536 8.34918 34.644 8.34918C34.0799 8.34918 33.6155 8.42867 33.2509 8.58764C32.8863 8.74662 32.704 8.97183 32.704 9.26329ZM48.6371 6.94821H48.6577C48.7747 7.00782 48.8332 7.15355 48.8332 7.38539C48.8332 7.61723 48.7747 7.92525 48.6577 8.30944C48.4445 9.00495 48.214 9.29641 47.9663 9.1838H47.9354L47.0685 8.85592C46.5938 8.65057 46.0125 8.5479 45.3246 8.5479C44.6435 8.5479 44.2066 8.81617 44.014 9.35271C43.8214 9.89588 43.7251 10.9392 43.7251 12.4825C43.7251 14.0193 43.8455 15.056 44.0862 15.5925C44.327 16.1224 44.7845 16.3874 45.4587 16.3874C46.4356 16.3874 47.1958 16.3311 47.7393 16.2185C48.2828 16.1125 48.5648 16.0595 48.5855 16.0595C48.7024 16.0264 48.7953 16.0893 48.8641 16.2483C48.9398 16.4072 48.9776 16.7815 48.9776 17.371C48.9776 17.9539 48.8469 18.2785 48.5855 18.3448C47.5604 18.5965 46.5526 18.7223 45.5619 18.7223C43.5668 18.7223 42.2012 18.2653 41.4651 17.3512C40.729 16.4371 40.361 14.7811 40.361 12.3832C40.361 10.6477 40.5226 9.33947 40.846 8.45848C41.1693 7.57749 41.6853 6.97139 42.3939 6.64019C43.1025 6.30237 44.1344 6.13346 45.4897 6.13346C46.845 6.13346 47.8941 6.40504 48.6371 6.94821ZM56.8307 18.3448L56.4385 17.6095C55.5786 18.3514 54.8149 18.7223 54.1476 18.7223C53.4734 18.7223 52.9299 18.6793 52.5172 18.5932C52.1044 18.5071 51.7329 18.3183 51.4027 18.0268C51.0725 17.7287 50.842 17.3015 50.7113 16.7451C50.5806 16.1887 50.5152 15.4501 50.5152 14.5294C50.5152 13.2443 51.1688 12.3633 52.4759 11.8864L56.0154 11.0021C55.9948 9.96874 55.8882 9.29972 55.6955 8.99502C55.496 8.69694 55.066 8.5479 54.4056 8.5479C53.7452 8.5479 53.1742 8.65057 52.6926 8.85592L51.8258 9.1838H51.8051C51.6538 9.26329 51.5196 9.20036 51.4027 8.99502C51.1068 8.39224 50.9589 7.91862 50.9589 7.57418C50.9589 7.23635 50.9899 7.04757 51.0518 7.00783C51.1068 6.96808 51.1344 6.93827 51.1344 6.9184C51.9599 6.39511 53.0297 6.13346 54.3437 6.13346C55.6577 6.13346 56.669 6.30237 57.3776 6.64019C58.0862 6.97139 58.6022 7.57749 58.9255 8.45848C59.2488 9.33947 59.4105 10.6477 59.4105 12.3832L59.3589 18.3448C59.3589 18.4375 59.3417 18.5004 59.3073 18.5335C59.2385 18.6594 58.9255 18.7223 58.3682 18.7223C57.3432 18.7223 56.8307 18.5965 56.8307 18.3448ZM53.2602 14.579C53.2602 15.725 53.6076 16.3278 54.3024 16.3874C54.784 16.3874 55.1314 16.3079 55.3447 16.1489C55.8056 15.8508 56.0361 14.7214 56.0361 12.7608C55.1761 12.8734 54.4985 13.1019 54.0032 13.4463C53.5078 13.7842 53.2602 14.1617 53.2602 14.579ZM64.8591 6.13346H66.0459C68.0409 6.13346 69.3997 6.56071 70.122 7.4152C70.8375 8.26307 71.1952 9.87932 71.1952 12.264C71.1952 14.6486 70.9097 16.3211 70.3387 17.2816C69.7677 18.2421 68.8734 18.7223 67.6557 18.7223C66.8095 18.7223 65.8016 18.6296 64.6321 18.4441L64.0645 18.3448C63.6174 18.5965 62.7746 18.7223 61.5363 18.7223V0.410344C61.5363 0.158633 61.8252 0.0327759 62.4031 0.0327759C62.981 0.0327759 63.4591 0.0692084 63.8375 0.142072C64.2159 0.208312 64.4154 0.297736 64.436 0.410344L64.8591 6.13346ZM66.0459 8.42867H64.8591V16.4371H67.2326C67.4115 16.4371 67.5215 16.0992 67.5628 15.4236C67.6041 14.7479 67.6247 13.655 67.6247 12.1447C67.6247 10.6345 67.5146 9.63754 67.2945 9.15399C67.0743 8.67044 66.6581 8.42867 66.0459 8.42867Z" fill="#5960FC"/>
</svg>
