<svg width="16" height="16" viewBox="0 0 16 16" fill="none" xmlns="http://www.w3.org/2000/svg">
<path d="M3.1998 6.4C3.19937 5.40269 3.50959 4.43 4.08737 3.6171C4.66514 2.8042 5.48178 2.19145 6.4238 1.864C6.38732 1.63545 6.40086 1.4017 6.46349 1.17889C6.52611 0.956079 6.63633 0.749506 6.78653 0.573423C6.93674 0.397341 7.12336 0.255942 7.33351 0.158982C7.54367 0.0620224 7.77236 0.0118103 8.0038 0.0118103C8.23525 0.0118103 8.46394 0.0620224 8.6741 0.158982C8.88425 0.255942 9.07087 0.397341 9.22108 0.573423C9.37128 0.749506 9.4815 0.956079 9.54412 1.17889C9.60675 1.4017 9.62028 1.63545 9.5838 1.864C10.5243 2.19279 11.3392 2.80612 11.9155 3.6189C12.4918 4.43169 12.8008 5.40366 12.7998 6.4V11.2L15.1998 12.8V13.6H0.799805V12.8L3.1998 11.2V6.4ZM9.5998 14.4C9.5998 14.8243 9.43123 15.2313 9.13118 15.5314C8.83112 15.8314 8.42415 16 7.9998 16C7.57546 16 7.16849 15.8314 6.86843 15.5314C6.56838 15.2313 6.3998 14.8243 6.3998 14.4H9.5998Z" fill="#98A8B3"/>
</svg>
