<svg width="18" height="18" viewBox="0 0 18 18" fill="none" xmlns="http://www.w3.org/2000/svg">
<path d="M14.6263 6.73217H14.0315V5.03135C14.0315 2.25718 11.7744 0 9 0C6.22563 0 3.96846 2.25718 3.96846 5.03135V6.73217H3.37369C3.16378 6.73217 2.99341 6.90254 2.99341 7.11246V17.6197C2.99341 17.8296 3.16378 18 3.37369 18H14.6263C14.8362 18 15.0066 17.8296 15.0066 17.6197V7.11246C15.0066 6.90254 14.8364 6.73217 14.6263 6.73217ZM9 2.12598C10.6021 2.12598 11.9056 3.42921 11.9056 5.03135V6.73217H6.09444V5.03135C6.09444 3.4294 7.39786 2.12598 9 2.12598Z" fill="#0B40D3"/>
</svg>
