<svg width="25" height="23" viewBox="0 0 25 23" fill="none" xmlns="http://www.w3.org/2000/svg">
<g clip-path="url(#clip0_59_186)">
<path d="M15.3035 11.6066C12.9175 11.6066 10.9763 13.4359 10.9763 15.6844C10.9763 17.9329 12.9175 19.7622 15.3035 19.7622C17.6896 19.7622 19.6308 17.9329 19.6308 15.6844C19.6308 13.4359 17.6894 11.6066 15.3035 11.6066ZM15.3035 18.2677C13.792 18.2677 12.5622 17.1088 12.5622 15.6844C12.5622 15.2435 12.6803 14.8282 12.8878 14.4647L14.7428 16.2128C14.8915 16.3529 15.0932 16.4317 15.3035 16.4317H17.9275C17.5864 17.4928 16.5394 18.2677 15.3035 18.2677ZM15.632 14.9372L14.0092 13.4079C14.3949 13.2123 14.8357 13.1011 15.3034 13.1011C16.5394 13.1011 17.5865 13.876 17.9275 14.9372H15.632Z" fill="#5960FC"/>
<path d="M19.9728 2.22033H17.6914C17.4126 1.57022 16.7362 1.11009 15.9477 1.11009H14.7162C14.4104 0.457011 13.7166 0 12.9117 0C12.1067 0 11.413 0.457011 11.1072 1.11017H9.87569C9.08711 1.11017 8.41072 1.5703 8.13196 2.22041H5.85057C4.75967 2.22041 3.87207 3.05685 3.87207 4.08488V20.7238C3.87207 21.7519 4.75967 22.5882 5.85057 22.5882H19.9728C21.0637 22.5882 21.9513 21.7519 21.9513 20.7238V4.08481C21.9513 3.05678 21.0637 2.22033 19.9728 2.22033ZM9.58119 2.88208C9.58127 2.72914 9.71339 2.60464 9.87569 2.60464H11.7335C12.1714 2.60464 12.5265 2.27007 12.5265 1.8574C12.5265 1.6573 12.6993 1.49447 12.9116 1.49447C13.1239 1.49447 13.2967 1.6573 13.2967 1.8574C13.2967 2.27007 13.6517 2.60464 14.0897 2.60464H15.9475C16.1098 2.60464 16.2419 2.72914 16.2419 2.88208V4.16337C16.2419 4.31632 16.1098 4.44082 15.9475 4.44082H9.87561C9.71331 4.44082 9.58119 4.31632 9.58119 4.16337V2.88208ZM19.9728 21.0937H5.85057C5.63404 21.0937 5.45794 20.9277 5.45794 20.7238V4.08481C5.45794 3.88075 5.63404 3.7148 5.85057 3.7148H7.99541V4.16329C7.99541 5.14037 8.83894 5.93521 9.87569 5.93521H15.9476C16.9844 5.93521 17.8279 5.14029 17.8279 4.16329V3.7148H19.9727C20.1892 3.7148 20.3653 3.88075 20.3653 4.08481V20.7238H20.3654C20.3653 20.9277 20.1892 21.0937 19.9728 21.0937Z" fill="#5960FC"/>
<path d="M7.02121 8.66024H12.9117C13.3496 8.66024 13.7046 8.32568 13.7046 7.91301C13.7046 7.50033 13.3496 7.16577 12.9117 7.16577H7.02121C6.5833 7.16577 6.22827 7.50033 6.22827 7.91301C6.22819 8.32568 6.58321 8.66024 7.02121 8.66024Z" fill="#5960FC"/>
<path d="M7.0212 10.8807H10.5555C10.9934 10.8807 11.3485 10.5461 11.3485 10.1334C11.3485 9.72075 10.9934 9.38618 10.5555 9.38618H7.0212C6.58329 9.38618 6.22827 9.72075 6.22827 10.1334C6.22819 10.5461 6.58321 10.8807 7.0212 10.8807Z" fill="#5960FC"/>
<path d="M11.3484 12.3538C11.3484 11.9412 10.9934 11.6066 10.5555 11.6066H7.02121C6.5833 11.6066 6.22827 11.9412 6.22827 12.3538C6.22827 12.7665 6.5833 13.1011 7.02121 13.1011H10.5556C10.9935 13.1011 11.3484 12.7665 11.3484 12.3538Z" fill="#5960FC"/>
</g>
<defs>
<clipPath id="clip0_59_186">
<rect width="23.9697" height="22.5882" fill="white" transform="translate(0.926758)"/>
</clipPath>
</defs>
</svg>
