<svg width="12" height="12" viewBox="0 0 12 12" fill="none" xmlns="http://www.w3.org/2000/svg">
<path fill-rule="evenodd" clip-rule="evenodd" d="M6.49194 2.91012C6.44961 2.67688 6.24546 2.5 6 2.5C5.72386 2.5 5.5 2.72386 5.5 3V5.5H3L2.91012 5.50806C2.67688 5.55039 2.5 5.75454 2.5 6C2.5 6.27614 2.72386 6.5 3 6.5H5.5V9L5.50806 9.08988C5.55039 9.32312 5.75454 9.5 6 9.5C6.27614 9.5 6.5 9.27614 6.5 9V6.5H9L9.08988 6.49194C9.32312 6.44961 9.5 6.24546 9.5 6C9.5 5.72386 9.27614 5.5 9 5.5H6.5V3L6.49194 2.91012Z" fill="#98A8B3"/>
</svg>
