<svg width="16" height="16" viewBox="0 0 16 16" fill="none" xmlns="http://www.w3.org/2000/svg">
<path d="M15.2 3.19999H11.2V2.13333H11.7333C11.8933 2.13333 12 2.02666 12 1.86666V0.799992C12 0.639992 11.8933 0.533325 11.7333 0.533325H4.26667C4.10667 0.533325 4 0.639992 4 0.799992V1.86666C4 2.02666 4.10667 2.13333 4.26667 2.13333H4.8V3.19999H0.8C0.346667 3.19999 0 3.54666 0 3.99999V8.26666C0 8.42666 0.106667 8.53332 0.266667 8.53332H1.06667V9.86666H1.6V8.53332H5.86667V9.33332C5.86667 9.49332 5.97333 9.59999 6.13333 9.59999H9.86667C10.0267 9.59999 10.1333 9.49332 10.1333 9.33332V8.53332H14.4V9.86666H14.9333V8.53332H15.7333C15.8933 8.53332 16 8.42666 16 8.26666V3.99999C16 3.54666 15.6533 3.19999 15.2 3.19999ZM4.53333 1.06666H11.4667V1.59999H4.53333V1.06666ZM5.33333 2.13333H10.6667V3.19999H5.33333V2.13333ZM9.6 9.06666H6.4V7.46666H9.6V9.06666ZM15.4667 7.99999H14.6667H10.1333V7.19999C10.1333 7.03999 10.0267 6.93332 9.86667 6.93332H6.13333C5.97333 6.93332 5.86667 7.03999 5.86667 7.19999V7.99999H1.33333H0.533333V3.99999C0.533333 3.83999 0.64 3.73333 0.8 3.73333H5.06667H10.9333H15.2C15.36 3.73333 15.4667 3.83999 15.4667 3.99999V7.99999Z" fill="black"/>
<path d="M14.4 14.9333H1.59998V14.4H1.06665V15.2C1.06665 15.36 1.17332 15.4667 1.33332 15.4667H14.6667C14.8267 15.4667 14.9333 15.36 14.9333 15.2V14.4H14.4V14.9333Z" fill="black"/>
<path d="M15.7333 11.4667H14.9333V10.6667C14.9333 10.5067 14.8267 10.4 14.6667 10.4H6.66667V10.9333H14.4V11.4667H12.8H2.66667C2.61333 11.4667 2.53333 11.4933 2.50667 11.52L0.186667 12.2933C0.08 12.32 0 12.4267 0 12.5333C0 12.64 0.08 12.7467 0.186667 12.7733L2.50667 13.5467C2.53333 13.5733 2.58667 13.5733 2.61333 13.6C2.64 13.6 2.64 13.6 2.66667 13.6H12.8H15.7333C15.8933 13.6 16 13.4933 16 13.3333V11.7333C16 11.5733 15.8933 11.4667 15.7333 11.4667ZM2.4 12.1067V12.96L1.12 12.5333L2.4 12.1067ZM2.93333 12H12.5333V13.0667H2.93333V12ZM13.0667 12H13.6V13.0667H13.0667V12ZM15.4667 13.0667H14.1333V12H15.4667V13.0667Z" fill="black"/>
<path d="M9.06668 8H6.93335V8.53333H9.06668V8Z" fill="black"/>
</svg>
