<svg width="16" height="16" viewBox="0 0 16 16" fill="none" xmlns="http://www.w3.org/2000/svg">
<path d="M9.6666 8.66666H14.3333C14.5173 8.66666 14.6666 8.51731 14.6666 8.33331C14.6666 8.14931 14.5173 8 14.3333 8H9.6666C9.4826 8 9.33325 8.14934 9.33325 8.33334C9.33325 8.51734 9.4826 8.66666 9.6666 8.66666Z" fill="black"/>
<path d="M9.6666 6.66666H14.3333C14.5173 6.66666 14.6666 6.51731 14.6666 6.33331C14.6666 6.14931 14.5173 6 14.3333 6H9.6666C9.4826 6 9.33325 6.14934 9.33325 6.33334C9.33325 6.51734 9.4826 6.66666 9.6666 6.66666Z" fill="black"/>
<path d="M9.6666 10.6667H14.3333C14.5173 10.6667 14.6666 10.5173 14.6666 10.3333C14.6666 10.1493 14.5173 10 14.3333 10H9.6666C9.4826 10 9.33325 10.1493 9.33325 10.3333C9.33325 10.5173 9.4826 10.6667 9.6666 10.6667Z" fill="black"/>
<path d="M9.66656 12.6667H12.3332C12.5172 12.6667 12.6666 12.5173 12.6666 12.3333C12.6666 12.1493 12.5173 12 12.3333 12H9.6666C9.4826 12 9.33325 12.1493 9.33325 12.3333C9.33325 12.5173 9.48256 12.6667 9.66656 12.6667Z" fill="black"/>
<path d="M4.33334 2C4.14934 2 4 2.14934 4 2.33334C4 2.51734 4.14934 2.66669 4.33334 2.66669C4.51734 2.66669 4.66669 2.51734 4.66669 2.33334C4.66669 2.14934 4.51734 2 4.33334 2Z" fill="black"/>
<path d="M14.3333 0.666656H1.66666C0.747344 0.666656 0 1.41466 0 2.33334V13.6667C0 14.5853 0.747344 15.3333 1.66666 15.3333H14.3333C15.2527 15.3333 16 14.5853 16 13.6667V2.33334C16 1.41466 15.2527 0.666656 14.3333 0.666656ZM15.3333 13.6667C15.3333 14.218 14.8847 14.6667 14.3333 14.6667H1.66666C1.11531 14.6667 0.666656 14.218 0.666656 13.6667V4H15.3333V13.6667H15.3333ZM15.3333 3.33334H0.666656V2.33334C0.666656 1.782 1.11531 1.33334 1.66666 1.33334H14.3333C14.8847 1.33334 15.3333 1.782 15.3333 2.33334V3.33334H15.3333Z" fill="black"/>
<path d="M1.6666 2C1.4826 2 1.33325 2.14934 1.33325 2.33334C1.33325 2.51734 1.4826 2.66669 1.6666 2.66669C1.8506 2.66669 1.99994 2.51734 1.99994 2.33334C1.99994 2.14934 1.8506 2 1.6666 2Z" fill="black"/>
<path d="M1.66663 12.6667L8.33328 12.666C8.51728 12.666 8.66663 12.5167 8.66663 12.3327C8.66663 11.4973 8.09997 10.772 7.29128 10.5693L6.29063 10.3193L6.24863 10.152C6.50797 9.86531 6.69263 9.49931 6.76928 9.11931C6.94728 9.02731 7.07594 8.85266 7.10263 8.64266L7.17463 8.06266C7.19663 7.88666 7.14263 7.70931 7.02597 7.576C6.98997 7.53534 6.94863 7.49934 6.90463 7.46934L6.92128 7.11534L6.98194 7.05469C7.15394 6.87203 7.3866 6.48203 7.0186 5.91934C6.84394 5.652 6.48394 5.33334 5.7626 5.33334C5.54994 5.33334 5.0706 5.33334 4.60525 5.62469C3.23325 5.67334 3.07191 6.41269 3.07191 6.97069C3.07191 7.08069 3.09191 7.28669 3.11056 7.45869C3.06122 7.49003 3.01591 7.52869 2.97656 7.57334C2.85791 7.708 2.80322 7.886 2.82591 8.06269L2.89791 8.64269C2.92525 8.86003 3.06325 9.04003 3.26656 9.12869C3.34122 9.49203 3.51591 9.84403 3.75922 10.1233L3.71056 10.3193L2.70991 10.5693C1.89991 10.772 1.33325 11.4973 1.33325 12.3333C1.33325 12.422 1.36791 12.5073 1.4306 12.5693C1.49331 12.6313 1.57797 12.6667 1.66663 12.6667ZM2.87263 11.2153L4.06728 10.9167C4.18663 10.8867 4.27994 10.7933 4.30994 10.674L4.45194 10.1054C4.48128 9.98803 4.4446 9.86403 4.35594 9.78137C4.0966 9.53737 3.9246 9.18072 3.8966 8.82737C3.8826 8.65472 3.7346 8.55872 3.5606 8.55872L3.4746 8.02806C3.5706 8.02806 3.66125 7.98741 3.7246 7.91541C3.78794 7.84406 3.81725 7.74875 3.80525 7.65341C3.77991 7.45206 3.73925 7.08806 3.73925 6.97075C3.73925 6.62541 3.73925 6.29941 4.71391 6.28941C4.78191 6.28875 4.84856 6.26741 4.90456 6.22741C5.22197 6 5.58731 6 5.76263 6C6.10663 6 6.33528 6.09266 6.46063 6.284C6.59597 6.49134 6.54063 6.55 6.50328 6.59066L6.35863 6.73531C6.29997 6.79397 6.26528 6.87197 6.26128 6.95466L6.22594 7.68C6.22194 7.77066 6.2326 7.834 6.2946 7.9C6.35725 7.966 6.42125 7.97934 6.51194 7.98L6.46928 8.522C6.29528 8.522 6.15128 8.65534 6.13728 8.82866C6.10794 9.188 5.92328 9.56066 5.65528 9.80131C5.56394 9.88331 5.52463 10.01 5.55463 10.13L5.69063 10.6746C5.72063 10.794 5.81328 10.888 5.93328 10.9173L7.12863 11.2159C7.52997 11.3166 7.83663 11.6193 7.95128 11.9999L2.04863 11.9993C2.16331 11.6193 2.47063 11.3167 2.87263 11.2153Z" fill="black"/>
<path d="M3.00009 2C2.81609 2 2.66675 2.14934 2.66675 2.33334C2.66675 2.51734 2.81609 2.66666 3.00009 2.66666C3.18409 2.66666 3.33344 2.51731 3.33344 2.33331C3.33344 2.14931 3.18409 2 3.00009 2Z" fill="black"/>
</svg>
