<svg width="16" height="16" viewBox="0 0 16 16" fill="none" xmlns="http://www.w3.org/2000/svg">
<path d="M3.99183 5.03522H1.85405C1.71567 5.03522 1.60352 5.14734 1.60352 5.28575V7.42353C1.60352 7.5619 1.71564 7.67406 1.85405 7.67406H3.99183C4.13021 7.67406 4.24237 7.56194 4.24237 7.42353V5.28575C4.24234 5.14737 4.13021 5.03522 3.99183 5.03522ZM3.7413 7.173H2.10455V5.53625H3.7413V7.173Z" fill="black"/>
<path d="M7.19837 5.03522H5.06059C4.92221 5.03522 4.81006 5.14734 4.81006 5.28575V7.42353C4.81006 7.5619 4.92218 7.67406 5.06059 7.67406H7.19837C7.33675 7.67406 7.4489 7.56194 7.4489 7.42353V5.28575C7.44887 5.14734 7.33675 5.03522 7.19837 5.03522ZM6.94784 7.173H5.31109V5.53625H6.94784V7.173Z" fill="black"/>
<path d="M3.99183 8.24188H1.85405C1.71567 8.24188 1.60352 8.35401 1.60352 8.49241V10.6302C1.60352 10.7686 1.71564 10.8807 1.85405 10.8807H3.99183C4.13021 10.8807 4.24237 10.7686 4.24237 10.6302V8.49241C4.24234 8.35407 4.13021 8.24188 3.99183 8.24188ZM3.7413 10.3797H2.10455V8.74294H3.7413V10.3797Z" fill="black"/>
<path d="M12.2589 6.79072V2.07906C12.2589 1.94069 12.1467 1.82853 12.0083 1.82853H10.9228V0.47572C10.9228 0.337345 10.8106 0.225189 10.6722 0.225189H9.60331C9.46494 0.225189 9.35278 0.337314 9.35278 0.47572V1.82853H6.91437V0.47572C6.91437 0.337345 6.80225 0.225189 6.66384 0.225189H5.595C5.45662 0.225189 5.34447 0.337314 5.34447 0.47572V1.82853H2.90606V0.47572C2.90606 0.337345 2.79394 0.225189 2.65553 0.225189H1.58662C1.44825 0.225189 1.33609 0.337314 1.33609 0.47572V1.82853H0.250531C0.112125 1.82853 0 1.94066 0 2.07906V11.6991C0 11.8375 0.112125 11.9496 0.250531 11.9496H7.00212C7.16081 12.969 7.66434 13.9045 8.43563 14.6035C9.26912 15.3588 10.3482 15.7748 11.4739 15.7748C13.9696 15.7748 16 13.7444 16 11.2488C16 9.04453 14.4067 7.166 12.2589 6.79072ZM9.85388 2.07906V0.726252H10.4217V2.07906V3.43188H9.85388V2.07906ZM5.8455 2.07906V0.726252H6.41334V2.07906V3.43188H5.8455V2.07906ZM1.83716 2.07906V0.726252H2.405V2.07906V3.43188H1.83716V2.07906ZM7.19834 8.24191H5.06056C4.92219 8.24191 4.81003 8.35403 4.81003 8.49244V10.6302C4.81003 10.7686 4.92216 10.8808 5.06056 10.8808H6.96325C6.95338 11.0028 6.94781 11.1255 6.94781 11.2488C6.94781 11.3151 6.94963 11.3818 6.95256 11.4486H0.501031V2.32956H1.33609V3.68238C1.33609 3.82075 1.44822 3.93291 1.58662 3.93291H2.65553C2.79391 3.93291 2.90606 3.82078 2.90606 3.68238V2.32956H5.34447V3.68238C5.34447 3.82075 5.45659 3.93291 5.595 3.93291H6.66391C6.80228 3.93291 6.91444 3.82078 6.91444 3.68238V2.32956H9.35284V3.68238C9.35284 3.82075 9.46497 3.93291 9.60338 3.93291H10.6723C10.8107 3.93291 10.9228 3.82078 10.9228 3.68238V2.32956H11.7579V6.7315C11.6632 6.72563 11.5683 6.72266 11.4739 6.72266C11.1986 6.72266 10.9245 6.74788 10.6556 6.79697V5.28575C10.6556 5.14738 10.5434 5.03522 10.405 5.03522H8.26725C8.12887 5.03522 8.01672 5.14735 8.01672 5.28575V7.42353C8.01672 7.56191 8.12884 7.67407 8.26725 7.67407H8.69841C8.28369 7.99635 7.92575 8.38935 7.64291 8.83785C7.57291 8.94885 7.50863 9.06278 7.44887 9.17875V8.49241C7.44884 8.35406 7.33672 8.24191 7.19834 8.24191ZM6.94781 8.74294V10.3797H5.31106V8.74294H6.94781ZM10.1545 5.53625V6.9185C9.93253 6.98619 9.71503 7.07141 9.50503 7.173H8.51775V5.53625H10.1545ZM11.4739 15.2738C9.40709 15.2738 7.68641 13.7262 7.47116 11.6738C7.47112 11.6735 7.47109 11.6732 7.47106 11.6729C7.45634 11.5321 7.44884 11.3894 7.44884 11.2488C7.44884 9.71497 8.30156 8.33519 9.67425 7.64772C9.67434 7.64766 9.67447 7.64763 9.67459 7.6476C9.92828 7.5206 10.195 7.42066 10.4673 7.35057C10.4674 7.35057 10.4674 7.35056 10.4674 7.35053C10.7943 7.26635 11.1329 7.22369 11.4739 7.22369C11.6416 7.22369 11.811 7.23422 11.9773 7.25494C11.9773 7.25494 11.9773 7.25494 11.9773 7.25494C13.985 7.50532 15.4989 9.22228 15.4989 11.2487C15.499 13.4682 13.6933 15.2738 11.4739 15.2738Z" fill="black"/>
<path d="M14.9517 10.0114C14.9052 9.88109 14.7617 9.81316 14.6315 9.85963C14.5012 9.90613 14.4332 10.0495 14.4797 10.1798C14.6019 10.5224 14.6639 10.882 14.6639 11.2488C14.6639 11.3871 14.7761 11.4993 14.9145 11.4993C15.0528 11.4993 15.165 11.3872 15.165 11.2488C15.165 10.8245 15.0932 10.4083 14.9517 10.0114Z" fill="black"/>
<path d="M14.5096 9.15129C14.0204 8.44529 13.2985 7.92857 12.477 7.69625C12.3438 7.65853 12.2054 7.73597 12.1677 7.86916C12.1301 8.00232 12.2075 8.14075 12.3406 8.17841C13.0506 8.37916 13.6746 8.82604 14.0977 9.43667C14.1464 9.50689 14.2245 9.54452 14.3039 9.54452C14.3531 9.54452 14.4028 9.53002 14.4464 9.49989C14.5601 9.42111 14.5884 9.26501 14.5096 9.15129Z" fill="black"/>
<path d="M11.4739 8.4101C9.90866 8.4101 8.63525 9.68347 8.63525 11.2487C8.63525 12.814 9.90863 14.0874 11.4739 14.0874C13.0391 14.0874 14.3125 12.814 14.3125 11.2487C14.3125 9.68347 13.0391 8.4101 11.4739 8.4101ZM11.4739 13.5863C10.1849 13.5863 9.13632 12.5377 9.13632 11.2488C9.13632 9.95981 10.185 8.91119 11.4739 8.91119C12.7628 8.91119 13.8114 9.95985 13.8114 11.2488C13.8114 12.5378 12.7628 13.5863 11.4739 13.5863Z" fill="black"/>
<path d="M12.9437 11.1814H11.7245V9.96214C11.7245 9.82377 11.6123 9.71161 11.4739 9.71161C11.3355 9.71161 11.2234 9.82373 11.2234 9.96214V11.4319C11.2234 11.5702 11.3355 11.6824 11.4739 11.6824H12.9436C13.082 11.6824 13.1942 11.5703 13.1942 11.4319C13.1942 11.2935 13.0821 11.1814 12.9437 11.1814Z" fill="black"/>
</svg>
