<svg width="16" height="16" viewBox="0 0 16 16" fill="none" xmlns="http://www.w3.org/2000/svg">
<path d="M15.7447 14.4681H1.53191V0.255319C1.53191 0.114315 1.41763 0 1.2766 0C1.13556 0 1.02128 0.114315 1.02128 0.255319V2.41134H0.255319C0.114281 2.41134 0 2.52565 0 2.66666C0 2.80766 0.114281 2.92197 0.255319 2.92197H1.02128V4.82267H0.255319C0.114281 4.82267 0 4.93699 0 5.07799C0 5.219 0.114281 5.33331 0.255319 5.33331H1.02128V7.23404H0.255319C0.114281 7.23404 0 7.34836 0 7.48936C0 7.63037 0.114281 7.74468 0.255319 7.74468H1.02128V9.64538H0.255319C0.114281 9.64538 0 9.75969 0 9.9007C0 10.0417 0.114281 10.156 0.255319 10.156H1.02128V12.0567H0.255319C0.114281 12.0567 0 12.171 0 12.312C0 12.453 0.114281 12.5674 0.255319 12.5674H1.02128V14.7234C1.02128 14.8644 1.13556 14.9787 1.2766 14.9787H5.04963V15.7447C5.04963 15.8857 5.16391 16 5.30495 16C5.44599 16 5.56027 15.8857 5.56027 15.7447V14.9787H11.461V15.7447C11.461 15.8857 11.5753 16 11.7163 16C11.8574 16 11.9716 15.8857 11.9716 15.7447V14.9787H15.7447C15.8857 14.9787 16 14.8644 16 14.7234C16 14.5824 15.8857 14.4681 15.7447 14.4681Z" fill="black"/>
<path d="M2.63838 13.9574C2.77941 13.9574 2.89369 13.8431 2.89369 13.7021V7.74468H5.04971V13.7021C5.04971 13.8431 5.16399 13.9574 5.30502 13.9574C5.44606 13.9574 5.56034 13.8431 5.56034 13.7021V10.156H7.57453V13.7021C7.57453 13.8431 7.68881 13.9574 7.82985 13.9574C7.97089 13.9574 8.08517 13.8431 8.08517 13.7021V9.90069C8.08517 9.75969 7.97089 9.64538 7.82985 9.64538H5.56034V7.48936C5.56034 7.34835 5.44606 7.23404 5.30502 7.23404H2.63838C2.49734 7.23404 2.38306 7.34835 2.38306 7.48936V13.7021C2.38306 13.8431 2.49734 13.9574 2.63838 13.9574Z" fill="black"/>
<path d="M9.1916 13.9574C9.33264 13.9574 9.44692 13.8431 9.44692 13.7021V2.92195H11.4611V13.7021C11.4611 13.8431 11.5754 13.9574 11.7164 13.9574C11.8575 13.9574 11.9718 13.8431 11.9718 13.7021V5.33332H14.1278V13.7021C14.1278 13.8431 14.242 13.9574 14.3831 13.9574C14.5241 13.9574 14.6384 13.8431 14.6384 13.7021V5.07801C14.6384 4.937 14.5241 4.82269 14.3831 4.82269H11.9718V2.66664C11.9718 2.52563 11.8575 2.41132 11.7164 2.41132H9.1916C9.05056 2.41132 8.93628 2.52563 8.93628 2.66664V13.7021C8.93628 13.8431 9.05056 13.9574 9.1916 13.9574Z" fill="black"/>
</svg>
