<svg width="48" height="48" viewBox="0 0 48 48" fill="none" xmlns="http://www.w3.org/2000/svg">
<g clip-path="url(#clip0_68_122)">
<path d="M40.6068 6.29138L18.8713 28.0269C18.2855 28.6127 17.3356 28.6127 16.7498 28.0269L7.39322 18.6703L0 26.0635L14.1138 40.1775C15.0942 41.1579 16.424 41.7087 17.8104 41.7087C19.1968 41.7087 20.5267 41.1578 21.507 40.1775L48 13.6845L40.6068 6.29138Z" fill="#A5EB78"/>
<g opacity="0.1">
<path opacity="0.1" d="M45.5553 11.2395L17.5867 39.2081C16.8129 39.9818 15.8399 40.5096 14.7886 40.7448C15.6664 41.3668 16.7206 41.7085 17.8106 41.7085C19.197 41.7085 20.5268 41.1577 21.5072 40.1773L48.0002 13.6843L45.5553 11.2395Z" fill="black"/>
</g>
</g>
<defs>
<clipPath id="clip0_68_122">
<rect width="48" height="48" fill="white"/>
</clipPath>
</defs>
</svg>
