<svg width="16" height="16" viewBox="0 0 16 16" fill="none" xmlns="http://www.w3.org/2000/svg">
<path d="M2.28564 3C2.28564 1.97433 3.11711 1.14285 4.14279 1.14285H11.8571C12.8827 1.14285 13.7142 1.97432 13.7142 3V9.93068C13.6454 9.97668 13.5801 10.0301 13.5194 10.0909L12.8571 10.7531V3C12.8571 2.44771 12.4094 2 11.8571 2H4.14279C3.5905 2 3.14279 2.44771 3.14279 3V12.9998C3.14279 13.5521 3.5905 13.9998 4.14279 13.9998H8.7529L9.61004 14.857H4.14279C3.11711 14.857 2.28564 14.0255 2.28564 12.9998V3Z" fill="#212121"/>
<path d="M6.0001 4.99999C6.0001 5.39448 5.68031 5.71428 5.28582 5.71428C4.89133 5.71428 4.57153 5.39448 4.57153 4.99999C4.57153 4.6055 4.89133 4.28571 5.28582 4.28571C5.68031 4.28571 6.0001 4.6055 6.0001 4.99999Z" fill="#212121"/>
<path d="M5.28582 8.71419C5.68031 8.71419 6.0001 8.39441 6.0001 7.9999C6.0001 7.60544 5.68031 7.28561 5.28582 7.28561C4.89133 7.28561 4.57153 7.60544 4.57153 7.9999C4.57153 8.39441 4.89133 8.71419 5.28582 8.71419Z" fill="#212121"/>
<path d="M5.28582 11.7143C5.68031 11.7143 6.0001 11.3945 6.0001 11C6.0001 10.6055 5.68031 10.2857 5.28582 10.2857C4.89133 10.2857 4.57153 10.6055 4.57153 11C4.57153 11.3945 4.89133 11.7143 5.28582 11.7143Z" fill="#212121"/>
<path d="M7.28575 4.57144C7.04906 4.57144 6.85718 4.76332 6.85718 5.00001C6.85718 5.2367 7.04906 5.42858 7.28575 5.42858H11C11.2367 5.42858 11.4286 5.2367 11.4286 5.00001C11.4286 4.76332 11.2367 4.57144 11 4.57144H7.28575Z" fill="#212121"/>
<path d="M6.85718 7.99989C6.85718 7.76321 7.04906 7.57132 7.28575 7.57132H11C11.2367 7.57132 11.4286 7.76321 11.4286 7.99989C11.4286 8.23658 11.2367 8.42846 11 8.42846H7.28575C7.04906 8.42846 6.85718 8.23658 6.85718 7.99989Z" fill="#212121"/>
<path d="M7.28575 10.5714C7.04906 10.5714 6.85718 10.7633 6.85718 11C6.85718 11.2367 7.04906 11.4286 7.28575 11.4286H11C11.2367 11.4286 11.4286 11.2367 11.4286 11C11.4286 10.7633 11.2367 10.5714 11 10.5714H7.28575Z" fill="#212121"/>
<path d="M14.7315 11.303L11.3029 14.7316C11.2226 14.812 11.1136 14.8571 10.9999 14.8571C10.8863 14.8571 10.7772 14.812 10.6969 14.7316L8.98368 13.0185C8.81631 12.8511 8.81631 12.5797 8.98368 12.4123C9.15105 12.245 9.42243 12.245 9.5898 12.4123L10.9999 13.8225L14.1255 10.697C14.2928 10.5296 14.5641 10.5296 14.7315 10.697C14.8989 10.8643 14.8989 11.1357 14.7315 11.303Z" fill="#212121"/>
</svg>
