<svg width="48" height="48" viewBox="0 0 48 48" fill="none" xmlns="http://www.w3.org/2000/svg">
<path d="M42 27.0572V8.36803C42 5.95547 40.0445 4.00003 37.632 4.00003H32.0004V3.04603C32.0004 1.36341 30.6369 0 28.9544 0H15.0464C13.3638 0 12.0003 1.36341 12.0003 3.04603V4.00003H6.36794C3.95538 4.00003 1.99994 5.95547 1.99994 8.36803V43.632C1.99994 46.0446 3.95538 48 6.36794 48H33.9999C40.6264 48 45.9999 42.6265 45.9999 36C46 32.4469 44.4545 29.2546 42 27.0572ZM16.0004 4.00003H28V8.00006H16.0004V4.00003ZM6.36794 44C6.1645 44 5.99997 43.8354 5.99997 43.632V8.36803C5.99997 8.16459 6.1645 8.00006 6.36794 8.00006H12V8.95406C12 10.6366 13.3634 12 15.046 12H15.0464H28.954H28.9544C30.6369 12 32.0004 10.6366 32.0004 8.95397V7.99997H37.632C37.8354 7.99997 37.9999 8.1645 37.9999 8.36794V24.6839C36.9832 24.3245 35.9038 24.0983 34.7822 24.026C34.7751 24.0255 34.7679 24.025 34.7608 24.0246C34.689 24.0201 34.6171 24.0159 34.545 24.0127C34.5048 24.0109 34.4646 24.0097 34.4244 24.0082C34.3765 24.0065 34.3287 24.0045 34.2806 24.0035C34.1872 24.0012 34.0937 23.9999 33.9999 23.9999C27.3734 23.9999 21.9999 29.3734 21.9999 35.9999C21.9999 36.0998 22.0012 36.1994 22.0037 36.2988C22.0045 36.332 22.0061 36.365 22.0071 36.3981C22.0093 36.4642 22.0114 36.5303 22.0146 36.5962C22.0165 36.6353 22.0192 36.6741 22.0215 36.7131C22.0249 36.7727 22.0284 36.8323 22.0328 36.8917C22.0358 36.933 22.0396 36.9742 22.043 37.0154C22.0478 37.0721 22.0526 37.1288 22.0581 37.1853C22.0623 37.2277 22.0669 37.2698 22.0715 37.312C22.0775 37.3672 22.0836 37.4222 22.0904 37.4771C22.0956 37.5199 22.1013 37.5625 22.107 37.6051C22.1142 37.659 22.1217 37.7129 22.1296 37.7665C22.1359 37.8095 22.1425 37.8522 22.1493 37.8951C22.1577 37.9484 22.1666 38.0017 22.1757 38.0547C22.183 38.0971 22.1904 38.1394 22.1982 38.1816C22.208 38.2349 22.2183 38.2882 22.2288 38.3412C22.237 38.3827 22.2452 38.4243 22.2539 38.4657C22.265 38.5192 22.2768 38.5725 22.2888 38.6257C22.2978 38.6663 22.3068 38.707 22.3162 38.7475C22.3289 38.8017 22.3424 38.8557 22.3558 38.9096C22.3655 38.9486 22.3749 38.9876 22.385 39.0264C22.3998 39.0831 22.4153 39.1394 22.4309 39.1958C22.4406 39.2313 22.4501 39.267 22.4602 39.3023C22.4784 39.3661 22.4976 39.4294 22.5168 39.4928C22.5253 39.5204 22.5332 39.5482 22.5418 39.5758C22.5701 39.6665 22.5993 39.7567 22.6296 39.8464C22.6338 39.8589 22.6385 39.8713 22.6428 39.8839C22.6691 39.9609 22.696 40.0377 22.7238 40.114C22.7352 40.1452 22.7472 40.1759 22.7588 40.2068C22.7804 40.2643 22.8018 40.3218 22.8243 40.3789C22.8381 40.4141 22.8526 40.4492 22.8667 40.4842C22.8878 40.5365 22.9088 40.5888 22.9307 40.6407C22.9461 40.6776 22.9622 40.7141 22.9779 40.7508C22.9995 40.8007 23.021 40.8504 23.0432 40.8999C23.0598 40.9372 23.0769 40.9742 23.094 41.0112C23.1162 41.0595 23.1386 41.1077 23.1614 41.1557C23.1792 41.1931 23.1974 41.2303 23.2156 41.2675C23.2386 41.3148 23.262 41.3618 23.2857 41.4086C23.3044 41.4457 23.3234 41.4826 23.3425 41.5193C23.3667 41.5658 23.3912 41.6122 23.4159 41.6584C23.4354 41.6948 23.4551 41.7312 23.475 41.7674C23.5004 41.8136 23.5262 41.8595 23.552 41.9053C23.5722 41.9408 23.5923 41.9765 23.6129 42.0118C23.6396 42.0578 23.6668 42.1035 23.6941 42.1492C23.7147 42.1837 23.7352 42.2183 23.7561 42.2525C23.7847 42.2992 23.814 42.3456 23.8431 42.3919C23.8636 42.4243 23.8838 42.4568 23.9045 42.4891C23.9362 42.5382 23.9686 42.5869 24.0009 42.6355C24.02 42.6643 24.0389 42.6934 24.0583 42.722C24.0967 42.7787 24.1359 42.8348 24.1753 42.8907C24.1893 42.9108 24.2031 42.9311 24.2173 42.9511C24.2712 43.0268 24.3259 43.1019 24.3816 43.1764C24.3934 43.1922 24.4057 43.2077 24.4176 43.2235C24.4616 43.2818 24.5058 43.3399 24.5508 43.3973C24.5717 43.424 24.5931 43.45 24.6141 43.4765C24.6509 43.5226 24.6876 43.5687 24.7251 43.6143C24.7491 43.6434 24.7735 43.6721 24.7978 43.7011C24.8332 43.7434 24.8687 43.7857 24.9047 43.8275C24.9303 43.8573 24.9565 43.8867 24.9825 43.9163C25.007 43.9443 25.0311 43.9725 25.0559 44.0002H6.36794V44ZM34 44C29.5826 44 26 40.4174 26 36C26 31.5826 29.5826 28 34 28C34.1217 28 34.2425 28.0039 34.363 28.0092C34.4247 28.0121 34.4862 28.0164 34.5476 28.0208C34.5961 28.024 34.6444 28.0276 34.6926 28.0318C36.1736 28.1648 37.5762 28.7216 38.7945 29.6419L39.4018 30.1006C40.9983 31.5633 42 33.6648 42 36C42 40.4174 38.4174 44 34 44Z" fill="#5960FC"/>
<path d="M36.5857 32.5858L33.9999 35.1716L33.4142 34.5859C32.6331 33.8048 31.3667 33.8048 30.5857 34.5859C29.8047 35.3669 29.8047 36.6333 30.5857 37.4143L32.5857 39.4143C33.3667 40.1953 34.6331 40.1953 35.4141 39.4143L39.4142 35.4142C40.1952 34.6332 40.1952 33.3668 39.4142 32.5858C38.6331 31.8048 37.3668 31.8048 36.5857 32.5858Z" fill="#5960FC"/>
<path d="M12 20H16C17.1046 20 18 19.1046 18 18C18 16.8954 17.1046 16 16 16H12C10.8954 16 10 16.8954 10 18C10 19.1046 10.8954 20 12 20Z" fill="#5960FC"/>
<path d="M24 20H31.9999C33.1045 20 33.9999 19.1046 33.9999 18C33.9999 16.8954 33.1045 16 31.9999 16H24C22.8954 16 22 16.8954 22 18C22 19.1046 22.8954 20 24 20Z" fill="#5960FC"/>
<path d="M18 32H10C8.89547 32 8.00006 32.8954 8.00006 33.9999C8.00006 35.1045 8.89547 36 10 36H18C19.1046 36 20 35.1046 20 34C20 32.8955 19.1046 32 18 32Z" fill="#5960FC"/>
<path d="M12 28H22C23.1046 28 24 27.1046 24 26.0001C24 24.8955 23.1046 24.0001 22 24.0001H12C10.8954 24.0001 10 24.8955 10 26.0001C10 27.1045 10.8954 28 12 28Z" fill="#5960FC"/>
</svg>
