<svg width="16" height="16" viewBox="0 0 16 16" fill="none" xmlns="http://www.w3.org/2000/svg">
<g clip-path="url(#clip0_34_64)">
<path d="M8.00072 0C3.58959 0 0.00100708 3.58878 0.00100708 7.9999C0.00100708 12.4112 3.58959 16 8.00072 16C12.4118 16 16.0006 12.4112 16.0006 7.9999C16.0006 3.58878 12.4117 0 8.00072 0ZM8.00072 14.8434C4.22746 14.8434 1.15743 11.7734 1.15743 7.9999C1.15743 4.22646 4.22727 1.15661 8.00072 1.15661C11.7742 1.15661 14.844 4.22646 14.844 7.9999C14.844 11.7734 11.7742 14.8434 8.00072 14.8434Z" fill="#A5AEB3"/>
<path d="M10.3147 8.73628C10.3116 8.73628 10.3089 8.73628 10.3058 8.73628L8.57821 8.76211V4.24091C8.57821 3.92149 8.31932 3.66261 7.99991 3.66261C7.68049 3.66261 7.4216 3.92149 7.4216 4.24091V9.34928C7.4216 9.35044 7.42199 9.3516 7.42199 9.35275C7.42199 9.35468 7.4216 9.35642 7.4216 9.35796C7.42199 9.38148 7.42642 9.40364 7.4295 9.4262C7.43143 9.44027 7.43162 9.45473 7.43432 9.46861C7.43953 9.49347 7.4482 9.51661 7.45649 9.53993C7.46073 9.55208 7.46343 9.5648 7.46844 9.57637C7.47847 9.60008 7.49196 9.62167 7.50488 9.64383C7.51085 9.65367 7.51529 9.66446 7.52165 9.6741C7.5363 9.6955 7.55384 9.71458 7.57119 9.73405C7.57851 9.74215 7.58449 9.7514 7.5922 9.7593C7.6109 9.77781 7.63191 9.79342 7.65292 9.80942C7.6614 9.81578 7.66892 9.8235 7.6776 9.82947C7.70034 9.84489 7.72521 9.85704 7.75008 9.86899C7.75875 9.87304 7.76646 9.87882 7.77533 9.88248C7.80425 9.89463 7.83509 9.90311 7.86632 9.91063C7.8721 9.91198 7.8775 9.91467 7.88347 9.91583C7.92087 9.92335 7.95962 9.92759 7.99933 9.92759C8.00222 9.92759 8.0053 9.92759 8.0082 9.92759L10.323 9.89289C10.6422 9.88807 10.8972 9.62514 10.8926 9.30591C10.8882 8.98958 10.63 8.73628 10.3147 8.73628Z" fill="#A5AEB3"/>
</g>
<defs>
<clipPath id="clip0_34_64">
<rect width="16" height="16" fill="white"/>
</clipPath>
</defs>
</svg>
