<svg width="16" height="16" viewBox="0 0 16 16" fill="none" xmlns="http://www.w3.org/2000/svg">
<path d="M2.15025 1.76812H3.62194V0.8125H2.15025C1.74262 0.8125 1.34581 0.927188 1.00256 1.14413L1.51319 1.95194C1.70337 1.83169 1.92369 1.76812 2.15025 1.76812ZM0.955625 2.96275C0.955625 2.78812 0.992313 2.62013 1.06463 2.46331L0.19675 2.06325C0.0661875 2.34637 0 2.649 0 2.96275V4.65425H0.955625V2.96275ZM0 5.61944H0.955625V8.02769H0V5.61944ZM12.8688 1.98231C13.1569 1.79987 13.4441 1.6275 13.7284 1.46625C13.5659 1.29888 13.3763 1.15763 13.1696 1.05094C12.8672 0.894938 12.5267 0.8125 12.1846 0.8125H11.3389V1.76812H12.1846C12.435 1.76812 12.6714 1.84381 12.8688 1.98231ZM0 8.99294H0.955625V11.406H0V8.99294ZM4.58719 0.8125H6.99544V1.76819H4.58719V0.8125ZM7.96063 0.8125H10.3737V1.76819H7.96063V0.8125ZM9.02619 14.1917H11.4344V15.1474H9.02619V14.1917ZM13.3792 6.24062H14.3349V8.65369H13.3792V6.24062ZM13.3792 9.61887H14.3349V12.0271H13.3792V9.61887ZM0.955625 12.9971V12.3712H0V12.9971C0 13.7798 0.425875 14.5013 1.11144 14.8802L1.57362 14.0437C1.19244 13.8331 0.955625 13.4321 0.955625 12.9971ZM13.3792 4.64169V5.27544H14.3349V3.85613C14.0208 4.09 13.7019 4.35212 13.3792 4.64169ZM13.3792 12.9971C13.3792 13.5962 12.9322 14.1055 12.3393 14.1819L12.4613 15.1297C12.9757 15.0634 13.4492 14.8123 13.7945 14.4226C14.1429 14.0293 14.3349 13.5231 14.3349 12.9971V12.9924H13.3792V12.9971ZM2.26969 14.1917H4.68275V15.1474H2.26969V14.1917ZM5.64794 14.1917H8.061V15.1474H5.64794V14.1917Z" fill="#98A8B3"/>
<path d="M2.18848 8.42112L6.67098 12.9036C6.67098 12.9036 11.1535 4.27993 16.0001 2.34587L15.8181 0.980621C13.1786 2.02731 9.17392 4.78056 6.21592 8.98993L3.09866 7.14693L2.18848 8.42112Z" fill="#98A8B3"/>
</svg>
