<svg width="23" height="23" viewBox="0 0 23 23" fill="none" xmlns="http://www.w3.org/2000/svg">
<path d="M11.5 1C5.69092 1 1 5.70533 1 11.5C1 17.3014 5.69956 22 11.5 22C17.3265 22 22 17.2791 22 11.5C22 5.69169 17.2912 1 11.5 1ZM16.9033 17.6842C15.4066 18.9959 13.5085 19.7124 11.5 19.7124C9.49187 19.7124 7.59409 18.9961 6.09751 17.685C5.89506 17.5076 5.80356 17.2351 5.85754 16.9714C6.37454 14.4461 7.98303 12.4546 10.0305 11.7993C8.96207 11.1668 8.22876 9.86744 8.22876 8.36601C8.22876 6.2435 9.69336 4.52288 11.5 4.52288C13.3066 4.52288 14.7712 6.2435 14.7712 8.36601C14.7712 9.86722 14.0382 11.1664 12.97 11.799C15.0175 12.4541 16.626 14.4456 17.1432 16.9707C17.1971 17.234 17.1054 17.5071 16.9033 17.6842Z" fill="#5960FC"/>
<rect x="0.5" y="0.5" width="22" height="22" rx="11" stroke="#D1D1F0"/>
</svg>
