<svg width="16" height="16" viewBox="0 0 16 16" fill="none" xmlns="http://www.w3.org/2000/svg">
<path d="M15.7142 7.63405C15.5744 7.45522 12.2429 3.25372 8.0002 3.25372C3.75711 3.25372 0.425576 7.45522 0.285764 7.63405L0 7.99982L0.285764 8.36559C0.425576 8.54441 3.75711 12.7461 8.0002 12.7461C12.2429 12.7461 15.5744 8.54441 15.7142 8.36559L16 7.99982L15.7142 7.63405ZM8.0002 11.5581C5.01621 11.5581 2.41166 8.97454 1.53576 8.00002C2.41206 7.02529 5.01641 4.44213 8.0002 4.44213C10.9838 4.44213 13.5883 7.02549 14.4644 8.00002C13.5879 8.97474 10.9836 11.5581 8.0002 11.5581Z" fill="#303030"/>
<path d="M7.99996 4.74948C6.20735 4.74948 4.74902 6.20761 4.74902 8.00002C4.74902 9.79283 6.20735 11.2512 7.99996 11.2512C9.79257 11.2512 11.2509 9.79283 11.2509 8.00002C11.2509 6.20761 9.79257 4.74948 7.99996 4.74948ZM7.99996 10.0627C6.86245 10.0627 5.93723 9.13733 5.93723 7.99982C5.93723 6.86271 6.86245 5.93749 7.99996 5.93749C9.13727 5.93749 10.0627 6.86271 10.0627 7.99982C10.0627 9.13733 9.13727 10.0627 7.99996 10.0627Z" fill="#303030"/>
</svg>
