<svg width="40" height="40" viewBox="0 0 40 40" fill="none" xmlns="http://www.w3.org/2000/svg">
<path d="M35.965 11.425C36.1983 10.65 35.965 10.0817 34.8617 10.0817H31.2067C30.2767 10.0817 29.8517 10.5733 29.6183 11.1133C29.6183 11.1133 27.76 15.645 25.1267 18.5833C24.2767 19.4383 23.8883 19.7083 23.425 19.7083C23.1933 19.7083 22.8567 19.4383 22.8567 18.6633V11.425C22.8567 10.495 22.5883 10.0817 21.8133 10.0817H16.07C15.49 10.0817 15.14 10.5117 15.14 10.9217C15.14 11.8017 16.4567 12.005 16.5917 14.485V19.865C16.5917 21.0433 16.38 21.2583 15.9133 21.2583C14.675 21.2583 11.6617 16.71 9.87334 11.5033C9.52501 10.4917 9.17334 10.0833 8.24001 10.0833H4.58668C3.54168 10.0833 3.33334 10.575 3.33334 11.115C3.33334 12.085 4.57168 16.885 9.10168 23.2333C12.1217 27.5683 16.3733 29.9183 20.2467 29.9183C22.5683 29.9183 22.855 29.3967 22.855 28.4967V25.22C22.855 24.1767 23.0767 23.9667 23.8117 23.9667C24.3517 23.9667 25.2817 24.24 27.45 26.3283C29.9267 28.805 30.3367 29.9167 31.7283 29.9167H35.3817C36.425 29.9167 36.9467 29.395 36.6467 28.365C36.3183 27.34 35.135 25.8483 33.565 24.0833C32.7117 23.0767 31.4367 21.9933 31.0483 21.4517C30.5067 20.7533 30.6633 20.445 31.0483 19.825C31.05 19.8267 35.5017 13.5567 35.965 11.425Z" fill="#A5AEB3"/>
</svg>
